<?xml version="1.0" encoding="utf-8" ?>
<svg baseProfile="tiny" height="100%" version="1.2" width="100%" xmlns="http://www.w3.org/2000/svg" xmlns:ev="http://www.w3.org/2001/xml-events" xmlns:xlink="http://www.w3.org/1999/xlink"><defs /><rect fill="black" height="100" id="background" width="100" x="0" y="0" /><g id="stars"><circle cx="59" cy="40" fill="white" id="star" r="1" /><circle cx="85" cy="17" fill="white" id="star" r="1" /><circle cx="55" cy="75" fill="white" id="star" r="1" /><circle cx="52" cy="65" fill="white" id="star" r="1" /><circle cx="64" cy="51" fill="white" id="star" r="1" /><circle cx="89" cy="95" fill="white" id="star" r="1" /><circle cx="51" cy="75" fill="white" id="star" r="1" /><circle cx="27" cy="57" fill="white" id="star" r="1" /><circle cx="59" cy="62" fill="white" id="star" r="1" /><circle cx="77" cy="54" fill="white" id="star" r="1" /><circle cx="56" cy="3" fill="white" id="star" r="1" /><circle cx="18" cy="93" fill="white" id="star" r="1" /><circle cx="92" cy="60" fill="white" id="star" r="1" /><circle cx="26" cy="12" fill="white" id="star" r="1" /><circle cx="93" cy="81" fill="white" id="star" r="1" /><circle cx="59" cy="22" fill="white" id="star" r="2" /><circle cx="45" cy="3" fill="white" id="star" r="2" /><circle cx="18" cy="27" fill="white" id="star" r="2" /><circle cx="23" cy="2" fill="white" id="star" r="2" /><circle cx="70" cy="74" fill="white" id="star" r="1" /><circle cx="22" cy="79" fill="white" id="star" r="1" /><circle cx="34" cy="46" fill="white" id="star" r="1" /><circle cx="63" cy="90" fill="white" id="star" r="1" /><circle cx="25" cy="87" fill="white" id="star" r="2" /><circle cx="79" cy="39" fill="white" id="star" r="3" /><circle cx="78" cy="71" fill="white" id="star" r="2" /><circle cx="42" cy="96" fill="white" id="star" r="4" /><circle cx="79" cy="9" fill="white" id="star" r="4" /><circle cx="92" cy="16" fill="white" id="star" r="4" /></g></svg>