<?xml version="1.0" encoding="utf-8" ?>
<svg baseProfile="tiny" height="100%" version="1.2" width="100%" xmlns="http://www.w3.org/2000/svg" xmlns:ev="http://www.w3.org/2001/xml-events" xmlns:xlink="http://www.w3.org/1999/xlink"><defs /><rect fill="black" height="1920" id="background" width="1080" x="0" y="0" /><rect fill="black" height="1920" id="background" width="1080" x="0" y="0" /><g id="stars"><circle cx="542" cy="1156" fill="white" id="star" r="2" /><circle cx="629" cy="482" fill="white" id="star" r="2" /><circle cx="168" cy="1784" fill="white" id="star" r="2" /><circle cx="445" cy="654" fill="white" id="star" r="2" /><circle cx="281" cy="624" fill="white" id="star" r="2" /><circle cx="125" cy="907" fill="white" id="star" r="4" /><circle cx="776" cy="1690" fill="white" id="star" r="4" /><circle cx="728" cy="253" fill="white" id="star" r="2" /><circle cx="708" cy="58" fill="white" id="star" r="2" /><circle cx="357" cy="1328" fill="white" id="star" r="4" /><circle cx="139" cy="721" fill="white" id="star" r="4" /><circle cx="392" cy="1578" fill="white" id="star" r="2" /><circle cx="873" cy="1669" fill="white" id="star" r="2" /><circle cx="946" cy="1254" fill="white" id="star" r="2" /><circle cx="421" cy="1762" fill="white" id="star" r="2" /><circle cx="1043" cy="565" fill="white" id="star" r="2" /><circle cx="55" cy="758" fill="white" id="star" r="2" /><circle cx="75" cy="935" fill="white" id="star" r="2" /><circle cx="748" cy="388" fill="white" id="star" r="4" /><circle cx="116" cy="958" fill="white" id="star" r="4" /><circle cx="162" cy="1812" fill="white" id="star" r="4" /><circle cx="57" cy="1669" fill="white" id="star" r="2" /><circle cx="280" cy="488" fill="white" id="star" r="2" /><circle cx="300" cy="1732" fill="white" id="star" r="2" /><circle cx="523" cy="1117" fill="white" id="star" r="4" /><circle cx="231" cy="751" fill="white" id="star" r="4" /><circle cx="282" cy="694" fill="white" id="star" r="4" /><circle cx="343" cy="736" fill="white" id="star" r="2" /><circle cx="511" cy="1484" fill="white" id="star" r="2" /><circle cx="697" cy="970" fill="white" id="star" r="4" /><circle cx="993" cy="168" fill="white" id="star" r="2" /><circle cx="279" cy="755" fill="white" id="star" r="4" /><circle cx="899" cy="1719" fill="white" id="star" r="2" /><circle cx="521" cy="1700" fill="white" id="star" r="4" /><circle cx="764" cy="1833" fill="white" id="star" r="2" /><circle cx="476" cy="1438" fill="white" id="star" r="2" /><circle cx="999" cy="757" fill="white" id="star" r="2" /><circle cx="269" cy="1423" fill="white" id="star" r="2" /><circle cx="472" cy="918" fill="white" id="star" r="2" /><circle cx="725" cy="1024" fill="white" id="star" r="4" /><circle cx="544" cy="131" fill="white" id="star" r="2" /><circle cx="479" cy="1337" fill="white" id="star" r="2" /><circle cx="1013" cy="190" fill="white" id="star" r="2" /><circle cx="421" cy="686" fill="white" id="star" r="4" /><circle cx="602" cy="463" fill="white" id="star" r="2" /><circle cx="55" cy="571" fill="white" id="star" r="4" /><circle cx="842" cy="1083" fill="white" id="star" r="2" /><circle cx="371" cy="859" fill="white" id="star" r="2" /><circle cx="1037" cy="613" fill="white" id="star" r="4" /><circle cx="1044" cy="795" fill="white" id="star" r="4" /><circle cx="1038" cy="959" fill="white" id="star" r="2" /><circle cx="726" cy="1327" fill="white" id="star" r="2" /><circle cx="630" cy="559" fill="white" id="star" r="4" /><circle cx="905" cy="454" fill="white" id="star" r="4" /><circle cx="99" cy="1022" fill="white" id="star" r="2" /><circle cx="1040" cy="1672" fill="white" id="star" r="4" /><circle cx="331" cy="566" fill="white" id="star" r="2" /><circle cx="392" cy="1489" fill="white" id="star" r="2" /><circle cx="327" cy="893" fill="white" id="star" r="2" /><circle cx="216" cy="1360" fill="white" id="star" r="2" /><circle cx="197" cy="340" fill="white" id="star" r="4" /><circle cx="156" cy="709" fill="white" id="star" r="2" /><circle cx="806" cy="1571" fill="white" id="star" r="4" /><circle cx="285" cy="559" fill="white" id="star" r="2" /><circle cx="839" cy="1530" fill="white" id="star" r="4" /><circle cx="106" cy="391" fill="white" id="star" r="2" /><circle cx="397" cy="1875" fill="white" id="star" r="4" /><circle cx="993" cy="510" fill="white" id="star" r="2" /><circle cx="591" cy="420" fill="white" id="star" r="4" /><circle cx="533" cy="736" fill="white" id="star" r="4" /><circle cx="1052" cy="212" fill="white" id="star" r="4" /><circle cx="606" cy="942" fill="white" id="star" r="4" /><circle cx="253" cy="138" fill="white" id="star" r="4" /><circle cx="256" cy="243" fill="white" id="star" r="4" /><circle cx="917" cy="19" fill="white" id="star" r="4" /><circle cx="248" cy="1263" fill="white" id="star" r="4" /><circle cx="961" cy="1166" fill="white" id="star" r="2" /><circle cx="771" cy="1772" fill="white" id="star" r="4" /><circle cx="244" cy="696" fill="white" id="star" r="2" /><circle cx="914" cy="652" fill="white" id="star" r="2" /><circle cx="208" cy="96" fill="white" id="star" r="4" /><circle cx="172" cy="844" fill="white" id="star" r="4" /><circle cx="228" cy="1690" fill="white" id="star" r="2" /><circle cx="759" cy="617" fill="white" id="star" r="2" /><circle cx="978" cy="1814" fill="white" id="star" r="2" /><circle cx="859" cy="191" fill="white" id="star" r="4" /><circle cx="708" cy="442" fill="white" id="star" r="2" /><circle cx="606" cy="603" fill="white" id="star" r="2" /><circle cx="19" cy="570" fill="white" id="star" r="4" /><circle cx="774" cy="247" fill="white" id="star" r="2" /><circle cx="664" cy="1190" fill="white" id="star" r="2" /><circle cx="361" cy="11" fill="white" id="star" r="4" /><circle cx="909" cy="1238" fill="white" id="star" r="4" /><circle cx="952" cy="1781" fill="white" id="star" r="4" /><circle cx="1044" cy="1032" fill="white" id="star" r="2" /><circle cx="483" cy="854" fill="white" id="star" r="4" /><circle cx="729" cy="1612" fill="white" id="star" r="4" /><circle cx="447" cy="439" fill="white" id="star" r="2" /><circle cx="634" cy="12" fill="white" id="star" r="4" /></g></svg>