<?xml version="1.0" encoding="utf-8" ?>
<svg baseProfile="tiny" height="100%" version="1.2" width="100%" xmlns="http://www.w3.org/2000/svg" xmlns:ev="http://www.w3.org/2001/xml-events" xmlns:xlink="http://www.w3.org/1999/xlink"><defs /><rect fill="black" height="1920" id="background" width="1080" x="0" y="0" /><g id="stars"><circle cx="478" cy="133" fill="white" id="star" r="4" /><circle cx="570" cy="29" fill="white" id="star" r="4" /><circle cx="454" cy="92" fill="white" id="star" r="4" /><circle cx="127" cy="265" fill="white" id="star" r="4" /><circle cx="295" cy="384" fill="white" id="star" r="4" /><circle cx="1044" cy="1832" fill="white" id="star" r="4" /><circle cx="253" cy="28" fill="white" id="star" r="2" /><circle cx="399" cy="1141" fill="white" id="star" r="4" /><circle cx="78" cy="1439" fill="white" id="star" r="2" /><circle cx="75" cy="1252" fill="white" id="star" r="2" /><circle cx="410" cy="1257" fill="white" id="star" r="4" /><circle cx="882" cy="1322" fill="white" id="star" r="2" /><circle cx="959" cy="1260" fill="white" id="star" r="2" /><circle cx="1057" cy="1288" fill="white" id="star" r="4" /><circle cx="342" cy="613" fill="white" id="star" r="2" /><circle cx="793" cy="1152" fill="white" id="star" r="2" /><circle cx="307" cy="893" fill="white" id="star" r="2" /><circle cx="253" cy="740" fill="white" id="star" r="4" /><circle cx="530" cy="988" fill="white" id="star" r="2" /><circle cx="24" cy="114" fill="white" id="star" r="2" /><circle cx="93" cy="561" fill="white" id="star" r="4" /><circle cx="477" cy="1776" fill="white" id="star" r="2" /><circle cx="610" cy="907" fill="white" id="star" r="4" /><circle cx="277" cy="1412" fill="white" id="star" r="2" /><circle cx="1040" cy="1478" fill="white" id="star" r="2" /><circle cx="532" cy="1503" fill="white" id="star" r="2" /><circle cx="819" cy="278" fill="white" id="star" r="2" /><circle cx="829" cy="1489" fill="white" id="star" r="2" /><circle cx="919" cy="339" fill="white" id="star" r="2" /><circle cx="986" cy="192" fill="white" id="star" r="4" /><circle cx="85" cy="1252" fill="white" id="star" r="2" /><circle cx="927" cy="91" fill="white" id="star" r="4" /><circle cx="149" cy="1133" fill="white" id="star" r="2" /><circle cx="411" cy="1818" fill="white" id="star" r="2" /><circle cx="431" cy="914" fill="white" id="star" r="4" /><circle cx="600" cy="1133" fill="white" id="star" r="2" /><circle cx="785" cy="1093" fill="white" id="star" r="4" /><circle cx="890" cy="1802" fill="white" id="star" r="4" /><circle cx="20" cy="1199" fill="white" id="star" r="2" /><circle cx="118" cy="1618" fill="white" id="star" r="2" /><circle cx="116" cy="678" fill="white" id="star" r="2" /><circle cx="230" cy="1641" fill="white" id="star" r="2" /><circle cx="1001" cy="298" fill="white" id="star" r="2" /><circle cx="88" cy="1774" fill="white" id="star" r="4" /><circle cx="754" cy="23" fill="white" id="star" r="4" /><circle cx="238" cy="1062" fill="white" id="star" r="4" /><circle cx="998" cy="363" fill="white" id="star" r="2" /><circle cx="507" cy="595" fill="white" id="star" r="2" /><circle cx="181" cy="1760" fill="white" id="star" r="4" /><circle cx="538" cy="611" fill="white" id="star" r="2" /><circle cx="118" cy="1254" fill="white" id="star" r="4" /><circle cx="840" cy="848" fill="white" id="star" r="2" /><circle cx="400" cy="244" fill="white" id="star" r="4" /><circle cx="966" cy="702" fill="white" id="star" r="4" /><circle cx="638" cy="1570" fill="white" id="star" r="2" /><circle cx="330" cy="1532" fill="white" id="star" r="4" /><circle cx="886" cy="1195" fill="white" id="star" r="4" /><circle cx="60" cy="1713" fill="white" id="star" r="2" /><circle cx="72" cy="1621" fill="white" id="star" r="4" /><circle cx="787" cy="677" fill="white" id="star" r="2" /><circle cx="225" cy="1158" fill="white" id="star" r="4" /><circle cx="975" cy="988" fill="white" id="star" r="2" /><circle cx="365" cy="1854" fill="white" id="star" r="2" /><circle cx="481" cy="1308" fill="white" id="star" r="4" /><circle cx="308" cy="917" fill="white" id="star" r="4" /><circle cx="308" cy="1606" fill="white" id="star" r="4" /><circle cx="796" cy="1490" fill="white" id="star" r="2" /><circle cx="1003" cy="637" fill="white" id="star" r="2" /><circle cx="1023" cy="301" fill="white" id="star" r="2" /><circle cx="342" cy="1652" fill="white" id="star" r="4" /><circle cx="31" cy="939" fill="white" id="star" r="2" /><circle cx="380" cy="884" fill="white" id="star" r="4" /><circle cx="908" cy="133" fill="white" id="star" r="4" /><circle cx="171" cy="472" fill="white" id="star" r="4" /><circle cx="403" cy="1579" fill="white" id="star" r="2" /><circle cx="447" cy="721" fill="white" id="star" r="2" /><circle cx="23" cy="126" fill="white" id="star" r="2" /><circle cx="130" cy="1307" fill="white" id="star" r="4" /><circle cx="994" cy="1615" fill="white" id="star" r="2" /><circle cx="420" cy="1718" fill="white" id="star" r="4" /><circle cx="364" cy="1682" fill="white" id="star" r="4" /><circle cx="532" cy="647" fill="white" id="star" r="2" /><circle cx="983" cy="1225" fill="white" id="star" r="4" /><circle cx="711" cy="976" fill="white" id="star" r="2" /><circle cx="698" cy="1389" fill="white" id="star" r="4" /><circle cx="550" cy="847" fill="white" id="star" r="2" /><circle cx="510" cy="1863" fill="white" id="star" r="4" /><circle cx="185" cy="1213" fill="white" id="star" r="4" /><circle cx="94" cy="902" fill="white" id="star" r="4" /><circle cx="813" cy="187" fill="white" id="star" r="4" /><circle cx="292" cy="1172" fill="white" id="star" r="4" /><circle cx="79" cy="1432" fill="white" id="star" r="4" /><circle cx="454" cy="762" fill="white" id="star" r="2" /><circle cx="392" cy="1002" fill="white" id="star" r="2" /><circle cx="247" cy="1064" fill="white" id="star" r="4" /><circle cx="301" cy="1865" fill="white" id="star" r="4" /><circle cx="423" cy="978" fill="white" id="star" r="2" /><circle cx="618" cy="613" fill="white" id="star" r="2" /><circle cx="402" cy="1163" fill="white" id="star" r="2" /></g></svg>